PathFileType	4	(X/Y/Z)	Walk10.trc
DataRate	CameraRate	NumFrames	NumMarkers	Units	OrigDataRate	OrigDataStartFrame	OrigNumFrames
200.000000	200.000000	7	57	mm	200.000000	626	868
Frame#	Times		RCAR		LMT5		RFHD		LTB3		RUA1		LTB2		RASI		LTB4		RElbow		RFA1		LACR1		LLFC		LUA1		LTH1		STRN		RACR1		RTH4		LToe		RTH3		RWRU		LCAR		RBHD		LASI		LTH3		LFHD		RLFC		CLAV		RBack		RTH2		C7		LTH4		LTH2		LElbow		RTB3		RTH1		LWRR		RTB4		RMT1		LFA1		LPSI		RLMAL		LWRU		LTB1		RPSI		RTB1		RTB2		LElbowM		RWRR		LBHD		LMT1		T10		RCAL		RMMAL		LMMAL		LLMAL		LCAL		RElbowM
			X1	Y1	Z1	X2	Y2	Z2	X3	Y3	Z3	X4	Y4	Z4	X5	Y5	Z5	X6	Y6	Z6	X7	Y7	Z7	X8	Y8	Z8	X9	Y9	Z9	X10	Y10	Z10	X11	Y11	Z11	X12	Y12	Z12	X13	Y13	Z13	X14	Y14	Z14	X15	Y15	Z15	X16	Y16	Z16	X17	Y17	Z17	X18	Y18	Z18	X19	Y19	Z19	X20	Y20	Z20	X21	Y21	Z21	X22	Y22	Z22	X23	Y23	Z23	X24	Y24	Z24	X25	Y25	Z25	X26	Y26	Z26	X27	Y27	Z27	X28	Y28	Z28	X29	Y29	Z29	X30	Y30	Z30	X31	Y31	Z31	X32	Y32	Z32	X33	Y33	Z33	X34	Y34	Z34	X35	Y35	Z35	X36	Y36	Z36	X37	Y37	Z37	X38	Y38	Z38	X39	Y39	Z39	X40	Y40	Z40	X41	Y41	Z41	X42	Y42	Z42	X43	Y43	Z43	X44	Y44	Z44	X45	Y45	Z45	X46	Y46	Z46	X47	Y47	Z47	X48	Y48	Z48	X49	Y49	Z49	X50	Y50	Z50	X51	Y51	Z51	X52	Y52	Z52	X53	Y53	Z53	X54	Y54	Z54	X55	Y55	Z55	X56	Y56	Z56	X57	Y57	Z57

626	3.13	-157.8	759.8	267.28	-179.88	23.649	-105.97	27.801	1578.5	11.088	-199.88	162.14	-66.149	-157.64	1181.9	218.95	-198.87	249.32	-121.79	-18.175	968.31	130.39	-176.71	244.86	-64.882	-218.47	1066.3	237.83	-228.29	919.43	251.3	-98.919	1376	-178.21	-173.75	475.68	-145.1	-84.013	1201.5	-279.11	-119.58	751.69	-242.79	7.7005	1226	-12.712	-120.75	1365.4	130.6	-25.321	663.9	180.27	-77.124	22.805	-57.033	11.094	589.54	160.37	-217.05	809.68	257.34	117.93	860.09	-294.94	-128.53	1552.1	48.003	-4.0683	953.82	-163.14	-152.63	596.33	-179.03	15.273	1576.2	-82.964	40.778	512.57	138.96	-46.322	1331	-23.217	-245.62	1318.2	73.354	27.944	691.29	179.86	-181.38	1415.4	-22.447	-136.64	676.42	-206.13	-80.409	672.36	-190.46	-96.607	1075.7	-315.91	84.581	189.57	80.928	-60.311	741.1	203.51	81.122	895.08	-256.09	94.655	273.64	78.867	162	56.822	65.337	-30.415	951.02	-318.52	-257.14	964.11	-70.872	38.197	75.653	97.943	44.261	859.09	-307.23	-152.58	328.19	-66.312	-259.9	963.84	18.934	104.16	360.09	83.538	60.543	277.75	131.56	-132.77	1037.2	-249.57	-158.47	813.46	217.49	-142.21	1541	-93.106	-146.86	28.473	-26.705	-262.15	1151	-41.284	-14.071	35.415	48.497	68.657	85.676	20.564	-245.74	63.714	-4.4288	-261.98	62.686	-88.051	-326.44	38.14	-52.378	-225.33	1040.2	142.61
627	3.135	-153.89	759.13	267.88	-179.91	23.646	-105.91	33.876	1577.5	11.315	-199.14	162.14	-66.102	-152.61	1181.2	219.14	-197.8	249.34	-121.66	-11.973	967.61	130.68	-175.5	244.74	-64.874	-213.74	1065.6	237.7	-223.97	918.86	251.14	-93.102	1375.4	-177.87	-171.24	475.59	-144.86	-76.803	1201	-278.59	-114.97	751.15	-242.67	13.581	1225.3	-12.745	-115.02	1364.7	130.85	-19.229	663.19	180.59	-77.004	22.751	-57.159	16.588	588.65	160.39	-213	809.02	257.12	127.81	861.7	-292.9	-122.49	1551.4	48.386	1.4119	952.88	-163.12	-149.15	596.11	-178.76	21.254	1575.2	-82.728	46.081	511.52	138.87	-40.516	1330.3	-23.035	-239.91	1317.3	73.503	34.146	690.26	179.79	-175.64	1414.6	-22.207	-132.59	676.06	-205.95	-76.402	671.5	-190.16	-88.689	1075.1	-315.61	100.18	189.84	81.739	-53.543	740.59	204.16	90.412	896.46	-254.42	107.26	274.24	79.284	182.26	59.538	66.566	-21.295	951.11	-317.63	-251.48	963.35	-70.036	57.858	74.361	99.108	54.226	859.95	-305.73	-150.9	327.91	-66.3	-253.87	963.06	19.764	113.66	361.03	83.556	73.172	277.37	132.03	-124.96	1036.5	-249.47	-153.67	812.78	218.13	-136.31	1540.5	-92.745	-146.77	28.498	-26.714	-256.36	1150.2	-40.877	6.9595	32.31	49.801	87.971	85.208	21.726	-245.44	63.954	-4.2602	-261.84	63.017	-87.843	-326.34	38.725	-52.104	-220	1039.6	142.49
628	3.14	-149.93	758.42	268.49	-179.94	23.647	-105.83	39.948	1576.4	11.547	-198.38	162.16	-66.039	-147.54	1180.5	219.36	-196.69	249.38	-121.52	-5.7344	966.87	130.98	-174.25	244.63	-64.848	-208.96	1065	237.6	-219.58	918.27	251.02	-87.307	1374.7	-177.53	-168.65	475.49	-144.6	-69.595	1200.5	-278.04	-110.28	750.6	-242.53	19.48	1224.6	-12.782	-109.28	1364	131.13	-13.227	662.35	180.94	-76.884	22.695	-57.288	21.928	587.6	160.46	-208.88	808.34	256.95	137.57	863.22	-290.85	-116.45	1550.7	48.785	6.9162	951.92	-163.08	-145.58	595.89	-178.47	27.23	1574.2	-82.487	51.283	510.36	138.82	-34.702	1329.5	-22.841	-234.17	1316.5	73.696	40.265	689.06	179.68	-169.92	1413.8	-21.941	-128.47	675.69	-205.76	-72.323	670.65	-189.85	-80.777	1074.6	-315.28	115.5	190.35	82.551	-46.8	739.99	204.78	99.583	897.74	-252.74	119.63	274.97	79.701	202.07	62.571	67.72	-12.243	951.17	-316.72	-245.8	962.55	-69.186	77.227	73.448	100.29	64.075	860.76	-304.24	-149.17	327.65	-66.263	-247.83	962.24	20.6	122.97	361.99	83.57	85.611	277.15	132.51	-117.18	1035.7	-249.35	-148.84	812.07	218.78	-130.42	1539.9	-92.369	-146.68	28.523	-26.716	-250.56	1149.4	-40.436	27.697	29.638	51.153	106.93	85.093	22.889	-245.12	64.218	-4.08	-261.69	63.381	-87.625	-326.25	39.352	-51.808	-214.64	1039	142.41
629	3.145	-145.9	757.69	269.1	-179.97	23.653	-105.74	46.019	1575.4	11.785	-197.59	162.2	-65.957	-142.44	1179.8	219.6	-195.52	249.45	-121.35	0.54269	966.1	131.3	-172.95	244.53	-64.803	-204.12	1064.3	237.53	-215.12	917.65	250.95	-81.533	1374	-177.16	-165.99	475.41	-144.31	-62.397	1200	-277.46	-105.53	750.03	-242.37	25.396	1223.8	-12.818	-103.51	1363.2	131.42	-7.3111	661.4	181.31	-76.766	22.635	-57.42	27.129	586.41	160.58	-204.69	807.64	256.83	147.19	864.63	-288.79	-110.4	1550	49.201	12.437	950.94	-163.01	-141.95	595.66	-178.18	33.201	1573.2	-82.238	56.414	509.1	138.84	-28.879	1328.7	-22.633	-228.42	1315.6	73.933	46.301	687.72	179.52	-164.19	1412.9	-21.648	-124.27	675.29	-205.54	-68.172	669.81	-189.53	-72.872	1074.1	-314.91	130.5	191.07	83.359	-40.09	739.3	205.37	108.64	898.94	-251.05	131.76	275.81	80.115	221.39	65.885	68.788	-3.2613	951.21	-315.8	-240.09	961.73	-68.32	96.247	72.901	101.48	73.806	861.51	-302.76	-147.39	327.39	-66.198	-241.77	961.39	21.445	132.1	362.97	83.577	97.844	277.09	133.01	-109.42	1034.9	-249.19	-143.98	811.35	219.45	-124.53	1539.2	-91.977	-146.59	28.549	-26.713	-244.76	1148.5	-39.961	48.075	27.388	52.545	125.47	85.311	24.046	-244.78	64.508	-3.8895	-261.53	63.779	-87.397	-326.14	40.026	-51.493	-209.26	1038.3	142.36
630	3.15	-141.81	756.94	269.71	-180	23.665	-105.63	52.087	1574.3	12.029	-196.77	162.26	-65.858	-137.3	1179	219.88	-194.3	249.53	-121.17	6.8577	965.3	131.62	-171.62	244.45	-64.736	-199.21	1063.6	237.49	-210.6	917.02	250.92	-75.779	1373.3	-176.78	-163.25	475.32	-144.02	-55.218	1199.4	-276.85	-100.7	749.46	-242.2	31.326	1223	-12.847	-97.718	1362.4	131.73	-1.4743	660.35	181.73	-76.65	22.573	-57.556	32.211	585.06	160.78	-200.42	806.93	256.76	156.68	865.95	-286.73	-104.35	1549.3	49.635	17.967	949.96	-162.92	-138.23	595.43	-177.87	39.168	1572.2	-81.982	61.504	507.76	138.91	-23.047	1327.9	-22.411	-222.65	1314.7	74.215	52.258	686.24	179.32	-158.47	1412.1	-21.324	-120	674.88	-205.31	-63.949	668.98	-189.19	-64.975	1073.5	-314.51	145.16	191.99	84.155	-33.421	738.53	205.91	117.58	900.03	-249.34	143.62	276.76	80.52	240.18	69.434	69.764	5.6479	951.23	-314.85	-234.34	960.88	-67.437	114.86	72.698	102.68	83.416	862.22	-301.28	-145.55	327.13	-66.105	-235.68	960.5	22.303	141.05	363.95	83.575	109.86	277.18	133.51	-101.68	1034.1	-249	-139.09	810.59	220.13	-118.64	1538.6	-91.568	-146.5	28.575	-26.705	-238.94	1147.6	-39.453	68.027	25.543	53.967	143.55	85.835	25.189	-244.43	64.825	-3.6905	-261.36	64.213	-87.161	-326.03	40.749	-51.164	-203.84	1037.6	142.36
631	3.155	-137.66	756.15	270.33	-180.03	23.685	-105.51	58.154	1573.2	12.281	-195.92	162.34	-65.742	-132.12	1178.3	220.19	-193.02	249.63	-120.97	13.21	964.48	131.94	-170.23	244.38	-64.648	-194.23	1062.9	237.48	-206	916.36	250.93	-70.044	1372.6	-176.39	-160.42	475.24	-143.7	-48.064	1198.9	-276.22	-95.799	748.89	-242	37.268	1222.2	-12.863	-91.905	1361.6	132.06	4.2914	659.19	182.19	-76.538	22.508	-57.696	37.193	583.6	161.06	-196.09	806.2	256.75	166.03	867.17	-284.66	-98.306	1548.6	50.087	23.501	948.97	-162.8	-134.45	595.2	-177.56	45.129	1571.2	-81.717	66.584	506.37	139.04	-17.206	1327	-22.173	-216.86	1313.8	74.543	58.139	684.65	179.09	-152.75	1411.2	-20.969	-115.65	674.45	-205.05	-59.654	668.17	-188.85	-57.088	1072.9	-314.07	159.44	193.07	84.931	-26.797	737.69	206.41	126.4	901.03	-247.63	155.21	277.8	80.91	258.38	73.168	70.64	14.483	951.21	-313.9	-228.57	960.01	-66.536	133.02	72.812	103.87	92.904	862.86	-299.8	-143.67	326.89	-65.983	-229.57	959.58	23.178	149.82	364.94	83.559	121.63	277.41	134.02	-93.958	1033.2	-248.78	-134.19	809.82	220.81	-112.77	1537.9	-91.141	-146.41	28.603	-26.691	-233.1	1146.7	-38.91	87.49	24.08	55.407	161.12	86.631	26.308	-244.07	65.172	-3.4861	-261.17	64.684	-86.921	-325.9	41.525	-50.824	-198.38	1036.9	142.4
632	3.16	-133.43	755.35	270.94	-180.06	23.713	-105.37	64.219	1572.1	12.54	-195.03	162.45	-65.61	-126.88	1177.5	220.52	-191.68	249.75	-120.75	19.597	963.63	132.24	-168.8	244.32	-64.539	-189.18	1062.1	237.5	-201.33	915.68	250.98	-64.325	1371.9	-175.98	-157.51	475.17	-143.36	-40.944	1198.3	-275.57	-90.826	748.3	-241.78	43.22	1221.4	-12.861	-86.07	1360.7	132.42	9.9965	657.95	182.7	-76.429	22.441	-57.841	42.101	582.02	161.43	-191.68	805.46	256.79	175.24	868.29	-282.59	-92.255	1547.8	50.556	29.034	947.99	-162.65	-130.58	594.96	-177.23	51.086	1570.1	-81.443	71.686	504.94	139.24	-11.356	1326.2	-21.917	-211.06	1312.9	74.917	63.952	682.95	178.83	-147.03	1410.2	-20.581	-111.23	674	-204.77	-55.287	667.37	-188.49	-49.212	1072.4	-313.59	173.32	194.3	85.68	-20.223	736.78	206.86	135.11	901.92	-245.9	166.51	278.9	81.281	275.95	77.028	71.411	23.24	951.18	-312.92	-222.76	959.12	-65.616	150.66	73.208	105.04	102.27	863.45	-298.33	-141.72	326.65	-65.834	-223.43	958.64	24.073	158.42	365.91	83.531	133.17	277.76	134.53	-86.266	1032.4	-248.53	-129.28	809.02	221.49	-106.89	1537.2	-90.694	-146.32	28.633	-26.674	-227.25	1145.8	-38.334	106.4	22.97	56.851	178.13	87.661	27.396	-243.69	65.55	-3.2798	-260.97	65.195	-86.679	-325.76	42.355	-50.482	-192.89	1036.2	142.48
